<svg width="18" height="18" viewBox="0 0 18 18" fill="none" xmlns="http://www.w3.org/2000/svg">
<path d="M14.0483 10.2702C14.2075 10.2702 14.3378 10.2195 14.4391 10.1182C14.5404 10.0169 14.5911 9.88661 14.5911 9.72738C14.5911 9.56815 14.5404 9.43788 14.4391 9.33655C14.3378 9.23522 14.2075 9.18456 14.0483 9.18456H11.4427C11.2835 9.18456 11.1532 9.23522 11.0519 9.33655C10.9505 9.43788 10.8999 9.56815 10.8999 9.72738C10.8999 9.88661 10.9505 10.0169 11.0519 10.1182C11.1532 10.2195 11.2835 10.2702 11.4427 10.2702H14.0483ZM14.0483 12.7238C14.2075 12.7238 14.3378 12.6731 14.4391 12.5718C14.5404 12.4704 14.5911 12.3402 14.5911 12.1809C14.5911 12.0217 14.5404 11.8914 14.4391 11.7901C14.3378 11.6888 14.2075 11.6381 14.0483 11.6381H11.4427C11.2835 11.6381 11.1532 11.6888 11.0519 11.7901C10.9505 11.8914 10.8999 12.0217 10.8999 12.1809C10.8999 12.3402 10.9505 12.4704 11.0519 12.5718C11.1532 12.6731 11.2835 12.7238 11.4427 12.7238H14.0483ZM11.573 4.34258H16.263C16.7407 4.34258 17.1496 4.51267 17.4897 4.85283C17.8299 5.193 18 5.60193 18 6.07961V16.2847C18 16.7479 17.8299 17.1496 17.4897 17.4897C17.1496 17.8299 16.7407 18 16.263 18H1.71532C1.25211 18 0.850422 17.8299 0.510253 17.4897C0.170084 17.1496 0 16.7479 0 16.2847V6.07961C0 5.60193 0.170084 5.193 0.510253 4.85283C0.850422 4.51267 1.25211 4.34258 1.71532 4.34258H6.44873V1.62847C6.44873 1.19421 6.60796 0.814234 6.92642 0.48854C7.24487 0.162847 7.62123 0 8.05549 0H9.94451C10.3788 0 10.7587 0.162847 11.0844 0.48854C11.4101 0.814234 11.573 1.19421 11.573 1.62847V4.34258ZM8.16405 5.64536H9.83595V1.73703H8.16405V5.64536ZM6.25332 11.6381C6.58625 11.6381 6.8649 11.5259 7.08926 11.3016C7.31363 11.0772 7.42581 10.7986 7.42581 10.4656C7.42581 10.1472 7.31363 9.87214 7.08926 9.64053C6.8649 9.40893 6.58625 9.29312 6.25332 9.29312C5.93486 9.29312 5.65983 9.40893 5.42823 9.64053C5.19662 9.87214 5.08082 10.1472 5.08082 10.4656C5.08082 10.7986 5.19662 11.0772 5.42823 11.3016C5.65983 11.5259 5.93486 11.6381 6.25332 11.6381ZM3.60434 14.1785H8.79373V13.8745C8.79373 13.614 8.72859 13.3824 8.59831 13.1797C8.46803 12.9771 8.30157 12.8396 8.09892 12.7672C7.63571 12.608 7.27382 12.503 7.01327 12.4524C6.75271 12.4017 6.4994 12.3764 6.25332 12.3764C5.97829 12.3764 5.68516 12.4089 5.37394 12.4741C5.06273 12.5392 4.7117 12.6369 4.32087 12.7672C4.10374 12.8396 3.93004 12.9771 3.79976 13.1797C3.66948 13.3824 3.60434 13.614 3.60434 13.8745V14.1785ZM6.44873 6.07961H1.71532V16.2847H16.263V6.07961H11.573C11.544 6.4994 11.3884 6.82147 11.1062 7.04584C10.8239 7.27021 10.4729 7.38239 10.0531 7.38239H7.92521C7.5199 7.38239 7.17612 7.27021 6.89385 7.04584C6.61158 6.82147 6.46321 6.4994 6.44873 6.07961Z" fill="#0C1116"/>
</svg>
