<svg width="18" height="18" viewBox="0 0 18 18" fill="none" xmlns="http://www.w3.org/2000/svg">
<path d="M1.71532 17.4137C1.25211 17.4137 0.850422 17.2437 0.510253 16.9035C0.170084 16.5633 0 16.1544 0 15.6767V5.47165C0 5.00844 0.170084 4.60675 0.510253 4.26659C0.850422 3.92642 1.25211 3.75633 1.71532 3.75633H5.23281V1.73703C5.23281 1.25935 5.40289 0.850422 5.74306 0.510253C6.08323 0.170084 6.48492 0 6.94813 0H11.0302C11.4934 0 11.8951 0.170084 12.2352 0.510253C12.5754 0.850422 12.7455 1.25935 12.7455 1.73703V3.75633H16.263C16.7407 3.75633 17.1496 3.92642 17.4897 4.26659C17.8299 4.60675 18 5.00844 18 5.47165V15.6767C18 16.1544 17.8299 16.5633 17.4897 16.9035C17.1496 17.2437 16.7407 17.4137 16.263 17.4137H1.71532ZM1.71532 15.6767H16.263V5.47165H1.71532V15.6767ZM6.94813 3.75633H11.0302V1.73703H6.94813V3.75633ZM1.71532 15.6767V5.47165V15.6767Z" fill="#4F5B67"/>
</svg>
