<svg width="15" height="18" viewBox="0 0 15 18" fill="none" xmlns="http://www.w3.org/2000/svg">
<path d="M9.35714 17C8.25967 17 7.17294 16.7931 6.159 16.391C5.14507 15.989 4.22378 15.3997 3.44775 14.6569C2.67172 13.914 2.05614 13.0321 1.63615 12.0615C1.21616 11.0909 1 10.0506 1 9C1 7.94943 1.21616 6.90914 1.63615 5.93853C2.05614 4.96793 2.67172 4.08601 3.44775 3.34315C4.22378 2.60028 5.14507 2.011 6.159 1.60896C7.17294 1.20693 8.25967 1 9.35714 1M14 9L10.2857 5.44444L14 9ZM14 9L10.2857 12.5556L14 9ZM14 9H4.71429H14Z" stroke="#4F5B67" stroke-width="1.5" stroke-linecap="round" stroke-linejoin="round"/>
</svg>
