<svg width="16" height="9" viewBox="0 0 16 9" fill="none" xmlns="http://www.w3.org/2000/svg">
<path d="M2.06438 8V1.95L0.709375 2.775V1.61L2.06438 0.8H3.12938V8H2.06438ZM7.16313 8.15C6.79313 8.15 6.44813 8.075 6.12813 7.925C5.81146 7.77167 5.53979 7.56167 5.31313 7.295C5.08646 7.025 4.92479 6.715 4.82813 6.365L5.83313 6.095C5.88979 6.30833 5.98646 6.49333 6.12313 6.65C6.26313 6.80667 6.42646 6.92833 6.61313 7.015C6.79979 7.09833 6.99313 7.14 7.19313 7.14C7.45646 7.14 7.69479 7.07667 7.90813 6.95C8.12479 6.82333 8.29479 6.65333 8.41813 6.44C8.54479 6.22667 8.60813 5.99167 8.60813 5.735C8.60813 5.47167 8.54313 5.23333 8.41313 5.02C8.28646 4.80667 8.11479 4.63833 7.89813 4.515C7.68479 4.38833 7.44979 4.325 7.19313 4.325C6.89979 4.325 6.65146 4.38333 6.44813 4.5C6.24479 4.61667 6.08646 4.75167 5.97313 4.905L5.06312 4.585L5.28313 0.8H9.16813V1.785H5.81813L6.24313 1.39L6.06813 4.225L5.86313 3.96C6.05313 3.77 6.27979 3.625 6.54313 3.525C6.80646 3.425 7.06813 3.375 7.32813 3.375C7.77479 3.375 8.17313 3.47833 8.52313 3.685C8.87646 3.89167 9.15479 4.17333 9.35813 4.53C9.56146 4.88333 9.66313 5.285 9.66313 5.735C9.66313 6.18167 9.54813 6.58833 9.31813 6.955C9.08813 7.31833 8.78313 7.60833 8.40313 7.825C8.02313 8.04167 7.60979 8.15 7.16313 8.15ZM12.6082 6.665V4.815H10.7582V3.975H12.6082V2.135H13.4482V3.975H15.2932V4.815H13.4482V6.665H12.6082Z" fill="#0C1116"/>
</svg>
