<svg width="18" height="18" viewBox="0 0 18 18" fill="none" xmlns="http://www.w3.org/2000/svg">
<path d="M6.83491 8.21462H14.158C14.342 8.21462 14.5012 8.14741 14.6356 8.01297C14.77 7.87854 14.8373 7.71226 14.8373 7.51415C14.8373 7.33019 14.77 7.17099 14.6356 7.03656C14.5012 6.90212 14.342 6.83491 14.158 6.83491H6.83491C6.63679 6.83491 6.47406 6.90212 6.3467 7.03656C6.21934 7.17099 6.15566 7.33726 6.15566 7.53538C6.15566 7.71934 6.21934 7.87854 6.3467 8.01297C6.47406 8.14741 6.63679 8.21462 6.83491 8.21462ZM6.83491 10.2311H10.3797C10.5778 10.2311 10.7441 10.1639 10.8785 10.0295C11.013 9.89505 11.0802 9.72877 11.0802 9.53066C11.0802 9.3467 11.013 9.1875 10.8785 9.05307C10.7441 8.91863 10.5778 8.85142 10.3797 8.85142H6.83491C6.63679 8.85142 6.47406 8.91863 6.3467 9.05307C6.21934 9.1875 6.15566 9.35377 6.15566 9.55189C6.15566 9.73585 6.21934 9.89505 6.3467 10.0295C6.47406 10.1639 6.63679 10.2311 6.83491 10.2311ZM6.83491 6.19811H14.158C14.342 6.19811 14.5012 6.1309 14.6356 5.99646C14.77 5.86203 14.8373 5.69575 14.8373 5.49764C14.8373 5.29953 14.77 5.13325 14.6356 4.99882C14.5012 4.86439 14.342 4.79717 14.158 4.79717H6.83491C6.63679 4.79717 6.47406 4.86792 6.3467 5.00943C6.21934 5.15094 6.15566 5.32075 6.15566 5.51887C6.15566 5.70283 6.21934 5.86203 6.3467 5.99646C6.47406 6.1309 6.63679 6.19811 6.83491 6.19811ZM4.64858 15.0495C4.1816 15.0495 3.78184 14.8833 3.44929 14.5507C3.11675 14.2182 2.95047 13.8184 2.95047 13.3514V1.67689C2.95047 1.22406 3.11675 0.831368 3.44929 0.498821C3.78184 0.166274 4.1816 0 4.64858 0H16.3231C16.7759 0 17.1686 0.166274 17.5012 0.498821C17.8337 0.831368 18 1.22406 18 1.67689V13.3514C18 13.8184 17.8337 14.2182 17.5012 14.5507C17.1686 14.8833 16.7759 15.0495 16.3231 15.0495H4.64858ZM4.64858 13.3514H16.3231V1.67689H4.64858V13.3514ZM1.67689 18C1.22406 18 0.831368 17.8337 0.498821 17.5012C0.166274 17.1686 0 16.7759 0 16.3231V3.79953C0 3.55896 0.0813679 3.35731 0.244104 3.19458C0.40684 3.03184 0.608491 2.95047 0.849057 2.95047C1.08962 2.95047 1.28774 3.03184 1.4434 3.19458C1.59906 3.35731 1.67689 3.55896 1.67689 3.79953V16.3231H14.2005C14.441 16.3231 14.6427 16.4045 14.8054 16.5672C14.9682 16.73 15.0495 16.9316 15.0495 17.1722C15.0495 17.4127 14.9682 17.6108 14.8054 17.7665C14.6427 17.9222 14.441 18 14.2005 18H1.67689ZM4.64858 1.67689V13.3514V1.67689Z" fill="#4F5B67"/>
</svg>
